<?xml version="1.0" standalone="no"?>
<!DOCTYPE svg PUBLIC "-//W3C//DTD SVG 20010904//EN"
 "http://www.w3.org/TR/2001/REC-SVG-20010904/DTD/svg10.dtd">
<svg version="1.0" xmlns="http://www.w3.org/2000/svg"
 width="300.000000pt" height="300.000000pt" viewBox="0 0 300.000000 300.000000"
 preserveAspectRatio="xMidYMid meet">

<g transform="translate(0.000000,300.000000) scale(0.100000,-0.100000)"
fill="#000000" stroke="none">
<path d="M1380 2920 c-920 -88 -1518 -991 -1234 -1865 68 -209 185 -397 348
-561 214 -214 459 -342 761 -400 135 -26 368 -24 513 4 576 114 1020 558 1134
1134 28 145 30 379 4 510 -83 428 -326 777 -689 990 -242 142 -562 214 -837
188z m418 -56 c194 -43 323 -97 477 -200 375 -249 602 -652 622 -1104 21 -492
-215 -960 -621 -1227 -245 -162 -540 -243 -836 -230 -721 32 -1288 590 -1336
1317 -13 205 33 452 121 651 135 304 400 569 704 704 114 51 289 99 408 114
127 16 329 5 461 -25z"/>
<path d="M1255 2864 c-567 -99 -1024 -559 -1119 -1123 -21 -124 -21 -358 0
-482 84 -504 464 -938 947 -1083 217 -66 472 -80 683 -38 436 87 785 354 987
757 147 295 173 707 66 1037 -157 484 -578 848 -1078 932 -117 20 -374 20
-486 0z m361 -62 c-3 -10 -6 -71 -8 -138 -2 -101 -5 -120 -18 -118 -8 2 -28 5
-43 9 l-28 6 3 132 3 132 48 -3 c39 -3 47 -7 43 -20z m-199 3 c43 -18 46 -18
37 -3 -4 7 -3 8 5 4 13 -8 8 -20 -21 -53 -19 -20 -22 -20 -54 -7 -39 16 -107
10 -125 -12 -17 -21 12 -28 81 -21 96 10 140 -15 140 -81 0 -37 -35 -69 -95
-88 -65 -19 -112 -17 -162 6 -49 22 -52 29 -20 58 19 18 24 19 41 6 22 -16
122 -19 145 -5 8 5 11 16 8 24 -5 13 -19 15 -79 11 -83 -6 -116 6 -136 49 -39
82 122 159 235 112z m423 -31 c53 -14 105 -35 118 -47 31 -29 29 -70 -5 -98
-16 -12 -21 -20 -13 -17 21 8 24 -49 4 -80 -27 -42 -53 -44 -172 -13 -60 16
-114 31 -119 34 -6 4 4 54 24 124 18 65 31 123 29 130 -4 9 1 10 17 3 12 -5
65 -21 117 -36z m-712 -150 c35 -69 58 -123 53 -119 -6 3 -24 -1 -40 -10 -31
-15 -45 -11 -224 60 -15 6 -10 -8 21 -71 33 -66 37 -80 24 -81 -10 -1 -28 -4
-41 -5 -21 -3 -29 9 -76 110 l-54 112 37 19 37 19 85 -34 c47 -19 93 -38 103
-44 18 -11 23 -1 8 16 -19 20 -69 143 -56 137 8 -2 22 0 32 6 10 6 20 11 23
11 3 0 34 -57 68 -126z m997 40 c18 -13 31 -79 14 -68 -3 2 -23 -24 -44 -58
-36 -58 -37 -62 -19 -75 10 -7 24 -11 32 -8 7 2 10 1 7 -5 -7 -11 32 -33 45
-25 6 4 9 2 8 -4 -2 -5 5 -16 16 -24 16 -12 17 -17 6 -38 -7 -13 -14 -26 -16
-28 -1 -2 -30 13 -63 34 -34 20 -66 33 -72 29 -8 -4 -9 -3 -5 4 8 14 -30 36
-46 26 -7 -4 -8 -3 -4 5 4 6 0 14 -8 17 -9 3 -16 11 -16 16 0 17 124 218 135
218 5 0 19 -7 30 -16z m-925 -38 c0 -2 -8 -10 -17 -17 -16 -13 -17 -12 -4 4
13 16 21 21 21 13z m450 -121 c225 -34 402 -125 570 -294 140 -140 230 -299
277 -489 26 -103 23 -362 -5 -464 -103 -375 -375 -647 -750 -750 -102 -28
-361 -31 -464 -5 -190 47 -349 137 -489 277 -133 133 -209 256 -262 425 -220
703 392 1412 1123 1300z m307 0 c0 -8 -4 -12 -9 -9 -5 3 -6 10 -3 15 9 13 12
11 12 -6z m454 -30 c3 3 21 -12 40 -33 l34 -37 -37 34 c-66 60 -41 18 31 -53
75 -75 88 -98 62 -118 -14 -12 -15 -11 -2 5 14 18 2 24 -15 7 -21 -21 -52 -19
-75 6 -12 13 -19 24 -14 24 5 0 -2 12 -16 28 -24 27 -24 27 8 -2 18 -16 31
-34 30 -39 -1 -6 3 -11 8 -12 6 0 16 -4 23 -9 27 -17 -5 28 -56 77 -43 43 -50
46 -62 32 -11 -14 -8 -22 26 -58 79 -84 79 -84 60 -106 -21 -23 -38 -22 -69 7
-13 12 -26 20 -28 17 -3 -3 -19 10 -35 27 -16 18 -19 24 -6 14 12 -11 22 -15
22 -11 0 5 18 -9 40 -30 59 -58 49 -29 -12 32 -49 50 -53 52 -70 36 -18 -16
-16 -20 47 -83 l66 -66 -21 -19 c-21 -19 -21 -18 -103 63 -46 46 -86 80 -89
77 -3 -4 -9 -1 -14 6 -5 8 -3 10 6 4 9 -5 10 -2 6 12 -4 13 3 28 24 48 16 15
27 31 25 35 -2 4 12 22 33 41 l37 34 -29 -32 c-47 -52 -15 -38 39 17 44 45 51
48 65 35 9 -8 19 -13 21 -10z m-1641 -47 c63 -22 117 -42 119 -44 3 -2 -5 -14
-17 -27 -11 -12 -21 -25 -21 -29 -1 -12 -9 -11 -42 2 -29 13 -32 11 -79 -35
-43 -43 -47 -50 -38 -71 10 -20 7 -28 -13 -50 -30 -33 -61 -50 -53 -31 2 7
-14 71 -36 142 l-41 128 31 32 c17 17 27 35 23 39 -4 4 6 2 22 -4 17 -7 82
-30 145 -52z m-10 -132 c0 -2 -8 -10 -17 -17 -16 -13 -17 -12 -4 4 13 16 21
21 21 13z m1555 -136 c21 -22 37 -40 34 -40 -3 0 -23 18 -44 40 -21 22 -37 40
-34 40 3 0 23 -18 44 -40z m-137 -1580 c86 -53 94 -148 18 -219 -14 -13 -24
-27 -21 -30 2 -4 -4 -7 -13 -8 -9 -1 -37 -9 -62 -18 -52 -19 -98 -15 -139 14
-15 11 -32 17 -36 13 -5 -4 -5 -2 -2 4 3 6 0 28 -7 49 -10 28 -11 47 -4 69 6
17 11 39 11 48 1 9 4 16 7 15 3 -1 22 11 42 27 74 56 151 70 206 36z m-1169
-30 c45 -22 88 -37 93 -34 6 4 8 2 5 -3 -4 -6 0 -17 9 -24 28 -23 44 -68 42
-113 -2 -24 -5 -42 -7 -40 -6 6 -31 -17 -31 -28 0 -6 7 -5 15 2 24 20 18 5 -7
-16 -12 -10 -18 -13 -14 -6 10 16 -4 15 -28 -3 -34 -26 -92 -18 -191 27 -90
41 -93 43 -92 74 1 18 5 30 8 28 11 -6 72 133 64 146 -5 8 -4 11 2 7 6 -4 13
0 17 8 8 22 24 19 115 -25z m851 -72 c0 -2 9 -55 20 -118 26 -150 26 -147 -12
-153 -40 -5 -45 1 -53 73 -10 88 -20 88 -40 0 -10 -45 -21 -83 -25 -85 -16
-10 -89 -22 -84 -14 4 7 -83 159 -91 159 -1 0 4 -28 11 -62 22 -103 20 -115
-20 -120 l-35 -4 -12 71 c-6 38 -17 100 -24 136 -11 61 -11 66 5 62 9 -2 40 0
69 5 34 6 54 6 58 -1 3 -6 1 -7 -5 -3 -19 12 -14 0 28 -65 22 -34 40 -67 40
-72 0 -6 3 -8 6 -5 10 10 45 162 40 175 -3 6 0 10 7 7 7 -2 32 0 57 5 56 11
60 12 60 9z m-528 -33 c147 -25 141 -22 133 -53 -4 -15 -8 -28 -9 -29 -1 -2
-37 4 -80 12 -97 19 -93 19 -99 -4 -4 -17 4 -21 57 -30 35 -6 72 -11 84 -11
26 0 35 -14 27 -41 -7 -23 -28 -23 -147 -3 -34 6 -38 4 -38 -15 0 -11 1 -21 3
-21 1 0 40 -7 87 -14 47 -8 88 -12 91 -11 3 2 3 -9 1 -26 -2 -16 -8 -31 -12
-34 -8 -5 -251 33 -259 40 -2 3 3 52 12 109 9 57 17 113 17 125 0 26 9 26 132
6z"/>
<path d="M1774 2715 c-9 -22 1 -29 59 -45 35 -9 51 -10 59 -2 15 15 -4 38 -40
46 -15 3 -37 8 -49 12 -16 4 -25 1 -29 -11z"/>
<path d="M1746 2617 c-7 -29 -4 -32 60 -46 47 -11 58 -11 65 0 12 20 -8 35
-68 52 -50 15 -51 15 -57 -6z"/>
<path d="M1376 2499 c-108 -13 -284 -74 -386 -134 -118 -69 -286 -238 -355
-355 -69 -117 -121 -277 -135 -412 -43 -403 172 -798 537 -990 549 -288 1221
-15 1419 576 232 695 -350 1404 -1080 1315z m356 -48 c163 -42 316 -125 435
-235 61 -56 153 -169 153 -187 0 -19 -30 -8 -46 16 -28 43 -137 88 -226 93
-116 7 -179 -12 -290 -86 -30 -20 -41 -22 -52 -13 -12 10 -17 8 -25 -8 -6 -11
-11 -33 -11 -50 0 -34 -15 -48 -35 -31 -22 18 -69 8 -80 -17 l-10 -23 -402 0
c-290 0 -409 -3 -428 -12 -53 -24 -55 -38 -55 -412 l0 -346 29 -32 29 -33 462
-3 c413 -2 461 -4 456 -18 -3 -9 -6 -33 -6 -54 0 -37 -2 -40 -40 -50 -37 -10
-40 -13 -37 -43 2 -30 0 -32 -33 -32 -35 0 -35 0 -38 -48 -9 -138 165 -208
278 -112 11 10 34 11 90 5 41 -4 110 -7 153 -6 42 0 77 -2 77 -5 0 -10 -155
-97 -221 -123 -128 -50 -192 -60 -364 -60 -131 1 -174 5 -238 22 -293 80 -543
297 -658 572 -185 441 -29 939 379 1206 107 71 241 121 388 144 87 13 276 4
366 -19z m7 -461 c38 -32 37 -60 -3 -60 -28 0 -46 25 -46 64 0 33 7 32 49 -4z
m581 -1 c0 -21 -35 -69 -50 -69 -17 0 -40 19 -40 32 0 7 68 47 83 48 4 0 7 -5
7 -11z m43 -21 c14 -22 14 -28 2 -38 -18 -15 -37 17 -28 49 3 12 6 20 7 19 1
-2 10 -15 19 -30z m-755 -88 c6 -2 12 -9 12 -17 0 -11 -79 -13 -434 -13 l-435
0 -20 -26 c-20 -26 -21 -38 -21 -334 0 -288 1 -309 19 -331 l19 -24 366 0
c201 0 366 -3 366 -7 0 -3 3 -13 6 -22 6 -14 -31 -16 -364 -16 -251 0 -379 4
-395 11 -14 6 -30 22 -36 36 -15 33 -15 686 0 714 6 11 20 24 32 29 19 8 851
7 885 0z m831 -98 c37 -117 53 -308 35 -400 l-6 -30 -32 18 c-17 10 -52 21
-78 24 l-47 7 35 46 c56 73 67 108 67 203 0 74 -6 113 -29 192 -4 12 0 15 15
11 13 -3 25 -24 40 -71z m-1186 16 c4 -18 9 -43 13 -55 6 -21 3 -22 -72 -25
-51 -2 -79 -7 -82 -15 -3 -10 18 -13 82 -13 74 0 87 -3 96 -19 5 -11 10 -22
10 -25 0 -3 -42 -7 -92 -8 -75 -2 -93 -6 -93 -18 0 -12 19 -16 102 -18 l102
-3 26 -80 27 -80 -57 -69 c-32 -39 -61 -72 -65 -75 -4 -2 -60 13 -124 34
l-118 39 -89 -59 c-49 -32 -91 -59 -94 -59 -3 0 -5 47 -5 104 0 59 -4 108 -10
111 -6 4 -10 -40 -10 -124 l0 -131 264 0 c163 0 267 4 271 10 4 6 -83 11 -242
12 l-248 3 75 49 c41 27 82 51 90 53 8 2 62 -12 120 -32 58 -19 110 -35 117
-35 6 0 38 31 69 70 l57 69 15 -27 c12 -24 82 -209 82 -218 0 -2 -163 -3 -362
-2 l-363 3 -3 319 c-2 227 1 323 9 332 9 11 61 14 254 14 l242 0 6 -32z m357
15 c0 -10 -3 -35 -6 -55 l-7 -38 -127 0 -127 0 -12 41 c-7 23 -15 47 -18 55
-4 12 21 14 146 14 137 0 151 -2 151 -17z m-302 -45 c10 -29 68 -191 127 -361
97 -275 115 -342 86 -311 -6 5 -58 146 -116 314 -59 168 -115 326 -125 352
-17 44 -17 58 1 58 4 0 16 -24 27 -52z m412 -8 c0 -5 -2 -10 -4 -10 -3 0 -8 5
-11 10 -3 6 -1 10 4 10 6 0 11 -4 11 -10z m430 -30 c0 -5 -4 -10 -10 -10 -5 0
-10 5 -10 10 0 6 5 10 10 10 6 0 10 -4 10 -10z m-560 -49 c0 -37 -11 -41 -115
-41 -104 0 -115 4 -115 41 0 5 52 9 115 9 63 0 115 -4 115 -9z m104 -10 c23
-26 13 -41 -28 -41 -41 0 -64 23 -46 45 17 21 54 19 74 -4z m373 -33 c95 -35
132 -113 77 -163 -37 -35 -88 -49 -174 -49 -111 0 -199 36 -235 97 -63 107
154 182 332 115z m253 -13 c32 -39 -28 -82 -77 -55 -33 19 -38 33 -18 54 20
20 78 21 95 1z m-746 -40 c-14 -35 7 -106 43 -146 40 -44 40 -43 -25 -28 -33
8 -56 22 -75 45 -22 26 -36 34 -61 34 -30 0 -34 4 -45 41 -7 23 -15 47 -18 55
-4 11 13 14 91 14 81 0 94 -2 90 -15z m82 -360 c6 -8 9 -26 6 -40 -4 -23 -8
-25 -62 -25 l-58 0 -31 86 c-17 47 -31 87 -31 89 0 7 166 -96 176 -110z m-16
-113 c0 -21 -4 -23 -37 -20 -29 2 -39 8 -41 23 -2 17 3 20 38 20 35 0 40 -3
40 -23z"/>
<path d="M853 1775 c-67 -29 -96 -133 -52 -189 44 -56 110 -70 166 -36 50 30
66 62 61 120 -6 56 -27 86 -75 106 -40 17 -59 17 -100 -1z m135 -50 c47 -54
19 -141 -53 -165 -30 -10 -41 -9 -72 7 -21 10 -44 29 -51 43 -16 32 -9 96 14
121 40 44 120 41 162 -6z"/>
<path d="M836 1719 c-28 -33 -33 -71 -12 -108 12 -22 14 -21 41 42 15 36 24
70 21 75 -3 6 2 8 13 5 22 -6 76 -122 62 -136 -5 -5 -12 -4 -15 2 -10 15 -29
14 -20 -1 4 -8 3 -10 -2 -5 -5 5 -9 12 -9 15 -1 26 -35 43 -35 18 0 -7 -7 -19
-15 -26 -23 -19 -8 -30 40 -30 36 0 48 5 69 31 15 17 26 43 26 59 0 16 -11 42
-26 59 -21 26 -33 31 -69 31 -36 0 -48 -5 -69 -31z"/>
<path d="M900 1678 c0 -9 7 -22 17 -29 15 -13 15 -12 3 11 -17 34 -20 36 -20
18z"/>
<path d="M1840 1636 c-7 -9 -9 -23 -6 -32 6 -15 9 -15 29 -1 12 8 22 21 22 28
0 20 -30 23 -45 5z"/>
<path d="M1992 1628 c-9 -9 -8 -16 5 -30 9 -10 22 -18 29 -18 22 0 27 21 8 41
-20 22 -26 23 -42 7z"/>
<path d="M647 2354 c15 -43 16 -44 34 -28 10 9 16 21 13 26 -3 4 -2 8 3 7 29
-5 22 4 -16 21 -24 11 -45 20 -46 20 -2 0 3 -20 12 -46z"/>
<path d="M2040 511 c-91 -48 -43 -173 54 -141 72 23 93 93 42 137 -33 28 -51
29 -96 4z m100 -95 c0 -2 -8 -10 -17 -17 -16 -13 -17 -12 -4 4 13 16 21 21 21
13z"/>
<path d="M926 451 c-14 -32 -26 -63 -26 -68 0 -15 68 -43 105 -43 43 0 68 33
63 82 -3 28 -10 37 -53 60 -27 15 -53 28 -56 28 -4 0 -18 -26 -33 -59z"/>
</g>
</svg>
